<svg xmlns="http://www.w3.org/2000/svg" width="44.416" height="44.418" viewBox="0 0 44.416 44.418"><defs><style>.a{fill:#328dff;}</style></defs><g transform="translate(-0.007)"><g transform="translate(0.007 0)"><path class="a" d="M105.257,324.583V313.726a1.43,1.43,0,0,0-1.411-1.411H87.474a1.43,1.43,0,0,0-1.411,1.411v10.857a1.43,1.43,0,0,0,1.411,1.411h16.372A1.43,1.43,0,0,0,105.257,324.583Zm-1.735-.324H87.8V314.05h15.724Z" transform="translate(-78.597 -285.221)"/><path class="a" d="M136.336,361.209a.868.868,0,0,0,.868-.868v-1.38a.868.868,0,1,0-1.735,0v1.38A.868.868,0,0,0,136.336,361.209Z" transform="translate(-123.716 -327.028)"/><path class="a" d="M238.8,361.209a.868.868,0,0,0,.868-.868v-1.38a.868.868,0,1,0-1.735,0v1.38A.868.868,0,0,0,238.8,361.209Z" transform="translate(-217.295 -327.028)"/><path class="a" d="M31.354,232.714H30.233a5.061,5.061,0,0,0-4.977-4.188H23.849v-3.1a.868.868,0,0,0-1.735,0v3.1H12.026v-3.1a.868.868,0,0,0-1.735,0v3.1H8.884a5.061,5.061,0,0,0-4.977,4.188H2.785a2.783,2.783,0,0,0-2.778,2.781v7.031a2.783,2.783,0,0,0,2.778,2.781H3.907a5.061,5.061,0,0,0,4.977,4.188h4.291a.868.868,0,1,0,0-1.735H8.884a3.323,3.323,0,0,1-3.318-3.32V233.581a3.323,3.323,0,0,1,3.318-3.32H25.256a3.323,3.323,0,0,1,3.318,3.32v10.857a3.323,3.323,0,0,1-3.318,3.32H20.965a.868.868,0,0,0,0,1.735h4.291a5.061,5.061,0,0,0,4.977-4.188h1.122a2.783,2.783,0,0,0,2.778-2.781v-7.031A2.783,2.783,0,0,0,31.354,232.714ZM3.831,243.571H2.785a1.046,1.046,0,0,1-1.043-1.046v-7.031a1.046,1.046,0,0,1,1.043-1.046H3.831v9.122ZM32.4,242.525a1.046,1.046,0,0,1-1.043,1.046H30.309v-9.122h1.046a1.046,1.046,0,0,1,1.043,1.046Z" transform="translate(-0.007 -205.076)"/><path class="a" d="M263.277,0H243.962A2.059,2.059,0,0,0,241.9,2.055V12.3a2.059,2.059,0,0,0,2.058,2.055h1.274v2.533a.868.868,0,0,0,1.283.761l6.034-3.295h10.724a2.059,2.059,0,0,0,2.058-2.055V2.055A2.059,2.059,0,0,0,263.277,0Zm.323,12.3a.33.33,0,0,1-.323.32H252.332a.868.868,0,0,0-.416.106l-4.945,2.7V13.49a.868.868,0,0,0-.868-.868h-2.142a.326.326,0,0,1-.323-.32V2.055a.326.326,0,0,1,.323-.32h19.316a.326.326,0,0,1,.323.32V12.3Z" transform="translate(-220.919 0)"/><path class="a" d="M284.78,50.235h2.53a.868.868,0,0,0,0-1.735h-2.53a.868.868,0,1,0,0,1.735Z" transform="translate(-259.282 -44.292)"/><path class="a" d="M371.95,48.5h-7.493a.868.868,0,1,0,0,1.735h7.493a.868.868,0,1,0,0-1.735Z" transform="translate(-332.048 -44.292)"/><path class="a" d="M424.214,97h-2.528a.868.868,0,0,0,0,1.735h2.528a.868.868,0,1,0,0-1.735Z" transform="translate(-384.312 -88.585)"/><path class="a" d="M292.275,97h-7.5a.868.868,0,0,0,0,1.735h7.5a.868.868,0,1,0,0-1.735Z" transform="translate(-259.282 -88.585)"/><path class="a" d="M187.556,492a.868.868,0,1,0,0,1.735h0a.868.868,0,1,0,0-1.735Z" transform="translate(-170.493 -449.318)"/></g></g></svg>