<svg xmlns="http://www.w3.org/2000/svg" width="191.412" height="41.07" viewBox="0 0 191.412 41.07"><defs><style>.a{fill:#fff;}</style></defs><g transform="translate(0 0)"><g transform="translate(0 0)"><path class="a" d="M465.52,53.085l11.485-11.224H465.694V36.58h19.349v5.37L473.555,53.131h11.7v5.282H465.52Z" transform="translate(-354.661 -27.869)"/><rect class="a" width="5.984" height="5.432" transform="translate(102.7 1.526)"/><rect class="a" width="5.984" height="21.835" transform="translate(102.619 8.775)"/><path class="a" d="M143.872,46.369a5.606,5.606,0,0,0-5.5-5.677,5.682,5.682,0,0,0,0,11.354,5.6,5.6,0,0,0,5.5-5.677m-16.813,0a11.293,11.293,0,1,1,3.291,8.031,11.312,11.312,0,0,1-3.291-8.031" transform="translate(-96.801 -26.741)"/><path class="a" d="M335.43,35.173h5.939v2.446a7.513,7.513,0,0,1,6.025-2.881c5.156,0,8.254,3.32,8.254,8.952V57.008h-6.07V44.475c0-2.924-1.353-4.627-4.015-4.627-2.272,0-4.148,1.572-4.148,5.239V57.008H335.43Z" transform="translate(-255.551 -26.465)"/><path class="a" d="M567.144,46.059a5.635,5.635,0,0,0-5.589-5.853,5.882,5.882,0,1,0,5.589,5.856M549.85,46.1c0-7.73,5.677-11.354,10.612-11.354a8.745,8.745,0,0,1,6.506,2.577V35.183h5.984V57.018h-5.984V54.575a8.511,8.511,0,0,1-6.594,2.881c-4.627,0-10.523-3.67-10.523-11.355" transform="translate(-418.909 -26.475)"/><path class="a" d="M657,35.173h5.939v2.446a7.513,7.513,0,0,1,6.025-2.881c5.153,0,8.254,3.32,8.254,8.952V57.008h-6.07V44.475c0-2.924-1.353-4.627-4.017-4.627-2.269,0-4.148,1.572-4.148,5.239V57.008H657Z" transform="translate(-500.542 -26.465)"/><path class="a" d="M465.52,58.413V53.085l11.485-11.224H465.694V36.58h19.349v5.37L473.555,53.131" transform="translate(-354.661 -27.869)"/><path class="a" d="M23.876,19.437l-.083.174a9.026,9.026,0,0,1-8.335,5.477,9.366,9.366,0,0,1-9.426-9.509,9.352,9.352,0,0,1,9.547-9.59A8.6,8.6,0,0,1,23.55,10.9l.093.174,5.325-3.405-.088-.152A15.234,15.234,0,0,0,15.581,0,15.24,15.24,0,0,0,0,15.581c0,9.03,6.554,15.584,15.581,15.584a15.375,15.375,0,0,0,13.755-8.64l.083-.162Z" transform="translate(0 0)"/><path class="a" d="M245.674,46.052a5.637,5.637,0,0,0-5.592-5.853,5.882,5.882,0,1,0,5.592,5.853m-17.294.043c0-7.73,5.677-11.355,10.612-11.355a8.551,8.551,0,0,1,6.506,2.8v-2.36h5.982V56.4c0,6.156-3.886,11.135-11.266,11.135-5.544,0-9.607-2.884-11.352-6.289l5.282-2.97a6.41,6.41,0,0,0,6.07,3.713,5.211,5.211,0,0,0,5.284-5.37V54.568a8.511,8.511,0,0,1-6.594,2.881c-4.629,0-10.523-3.67-10.523-11.355" transform="translate(-173.994 -26.467)"/><path class="a" d="M759.63,18.9V13.531h-4.105V6.33h-5.982v7.2H745.83V18.9h3.713v6.987c0,7.12,2.269,9.476,9.214,9.476h.874V29.777c-3.67,0-4.105-.524-4.105-3.929V18.9Z" transform="translate(-568.218 -4.823)"/></g></g></svg>